# xmcd
#
# Track frame offsets:
#	150
#	15175
#	30414
#	41386
#	53203
#	70769
#	89324
#	103853
#	119518
#	132316
#	147772
#	165622
#	184185
#	201550
#	216787
#	232522
#	245590
#	261432
#
# Disc length: 3725 seconds
#
# Revision: 0
# Processed by: cddbd v1.5.2PL0 Copyright (c) Steve Scherf et al.
# Submitted via: EasyCDDAExtractor 16.0.6.1
#
DISCID=f80e8b12
DTITLE=Γλυκερία - Εκατόν σαράντα μεγ. επιτυχίες-Γλυκερία 5
DYEAR=2010
DGENRE=Ποικίλη
TTITLE0=Κανείς εδώ δεν τραγουδά [Νίκος Παπάζογλου-Τάκης Σιμώτας]
TTITLE1=Όταν βλέπεις κάποιον μόνο [Νίκος Ξυδάκης-Μανώλης Ρασούλης]
TTITLE2=Τι γλυκό να σ' αγαπούν [Γιώργος Ζαμπέτας-Λ. Παπαδόπουλος]
TTITLE3=Έλα, έλα [Νίκος Ξυδάκης]
TTITLE4=Σε μιά σχεδία [Στέλιος Φωτιάδης-Χάρης Ρώμας]
TTITLE5=Τα κουρέλια [Θαν. Πολυκανδριώτης-Μάνος Ελευθερίου]
TTITLE6=Όλες του κόσμου οι Κυριακές [Χρ. Νικολόπουλος-Λ. Παπαδόπουλος]
TTITLE7=Πού πέταξε τ' αγόρι μου [Μ. Θεοδωράκης-Γ. Ρίτσος]
TTITLE8=Τότε, μωρό μου [Θαν. Πολυκανδριώτης-Ιφιγ. Γιαννοπούλου]
TTITLE9=Το λάθος [Μανώλης Γαλιάτσος]
TTITLE10=Νύχτα γεμάτη αλκοόλ [Στέλιος Φωτιάδης-Χρ. Προμοίρας]
TTITLE11=Όλη μου η ζωή [Χρ. Νικολόπουλος-Λ. Παπαδόπουλος]
TTITLE12=Όταν βρέξει, σε θυμάμαι [Στέλιος Φωτιάδης-Μ. Ελευθερίου]
TTITLE13=Ξημέρωσε [Χρ. Νικολόπουλος-Λ. Παπαδόπουλος]
TTITLE14=Όλα [Χρ. Νικολόπουλος-Λ. Παπαδόπουλος]
TTITLE15=Εδώ βυθός [Στέλιος Φωτιάδης-Χρ. Προμοίρας]
TTITLE16=Ζωή μισή [Στέλιος Φωτιάδης-Χρύσα Δαμιανού]
TTITLE17=Δε με τρομάζει [Στέλιος Φωτιάδης-Σαράντης Αλιβιζάτος]
EXTD=
EXTT0=
EXTT1=
EXTT2=
EXTT3=
EXTT4=
EXTT5=
EXTT6=
EXTT7=
EXTT8=
EXTT9=
EXTT10=
EXTT11=
EXTT12=
EXTT13=
EXTT14=
EXTT15=
EXTT16=
EXTT17=
PLAYORDER=
